# xmcd
#
# Track frame offsets: 
#        150
#        72507
#        103350
#        152090
#        253300
#
# Disc length: 4142 seconds
#
# Revision: 1
# Processed by: cddbd v1.5.2PL0 Copyright (c) Steve Scherf et al.
# Submitted via: ExactAudioCopy v1.0b4
#
DISCID=49102c05
DTITLE=John Coltrane - So Many Things: The European Tour 1961 [CD1]
DYEAR=1961
DGENRE=Jazz
TTITLE0=Blue Train [L'Olympia, Paris 1961-11-18 (1st House)]
TTITLE1=I Want to Talk About You [L'Olympia, Paris 1961-11-18 (1st Hou
TTITLE1=se)]
TTITLE2=Impressions [L'Olympia, Paris 1961-11-18 (1st House)]
TTITLE3=My Favourite Things [L'Olympia, Paris 1961-11-18 (1st House)]
TTITLE4=Blue Train [L'Olympia, Paris 1961-11-18 (2nd House)]
EXTD=YEAR: 1961
EXTT0=
EXTT1=
EXTT2=
EXTT3=
EXTT4=
PLAYORDER=
